<svg width="153" height="56" viewBox="0 0 153 56" fill="none" xmlns="http://www.w3.org/2000/svg">
<path d="M72.9872 12.8113L67.2513 20.735L61.5155 12.8113H60.0898V26.4103H63.6374V21.0694L67.243 26.1846H67.268L70.8653 21.0694V26.4103H74.4129V12.8113H72.9872ZM85.9673 26.4103H89.8547L83.6383 12.7695H81.9555L75.7474 26.4103H79.6265L80.306 24.8389H85.2961L85.9673 26.4103ZM81.4252 22.2228L82.8012 19.0299L84.1686 22.2228H81.4252ZM98.6823 12.9367H88.7193V16.28H91.9269V26.4103H95.4827V16.28H98.6823V12.9367ZM108.853 16.2633V12.9367H100.191V26.4103H108.853V23.0586H103.697V21.1279H107.941V18.1439H103.697V16.2633H108.853ZM122.123 26.4103L118.542 21.0025C119.852 20.4007 120.855 18.9965 120.855 17.3165C120.855 14.9009 118.791 12.9367 115.906 12.9367H110.834L110.85 26.4103H114.398V20.5595L117.97 26.4103H122.123ZM114.381 16.1546H115.832C116.578 16.1546 117.274 16.6729 117.274 17.5087C117.274 18.3362 116.586 18.8711 115.832 18.8627L114.381 18.8544V16.1546ZM123.399 26.4103H126.947V12.9367H123.399V26.4103ZM138.501 26.4103H142.389L136.172 12.7695H134.49L128.281 26.4103H132.161L132.84 24.8389H137.83L138.501 26.4103ZM133.959 22.2228L135.335 19.0299L136.703 22.2228H133.959ZM147.271 23.0503V12.9367H143.723V26.4103H152.385V23.0503H147.271ZM64.4498 31.7663L60.0898 31.7749V45.24H64.4498C68.992 45.24 71.7686 42.699 71.7686 38.52C71.7686 34.3073 68.992 31.7497 64.4498 31.7663ZM64.3916 41.8717H63.5463V35.1097H64.3587C66.7541 35.1097 68.2128 36.3969 68.2128 38.5115C68.2128 40.6011 66.7624 41.8717 64.3916 41.8717ZM82.1794 35.093V31.7663H73.5176V45.24H82.1794V41.8884H77.0237V39.9575H81.2676V36.9736H77.0237V35.093H82.1794ZM84.1604 45.24H87.708V41.2699H89.2081C92.0098 41.2699 94.2561 39.0884 94.2561 36.4889C94.2561 33.8559 91.9601 31.7663 89.2081 31.7663H84.1604V45.24ZM89.2081 37.9767L87.708 37.9684V35.0678H89.2081C90.1532 35.0678 90.8329 35.6865 90.8329 36.5055C90.8329 37.333 90.1614 37.985 89.2081 37.9767ZM102.512 45.5826C106.673 45.5826 109.855 42.532 109.855 38.52C109.855 34.4746 106.673 31.4071 102.52 31.4071C98.3673 31.4071 95.1844 34.4746 95.1844 38.52C95.1844 42.532 98.3591 45.5826 102.512 45.5826ZM102.52 42.1642C100.398 42.1642 98.7735 40.5678 98.7735 38.4949C98.7735 36.4136 100.398 34.8089 102.52 34.8089C104.642 34.8089 106.266 36.4136 106.266 38.4949C106.266 40.5678 104.642 42.1642 102.52 42.1642ZM120.084 31.7663H110.121V35.1097H113.328V45.24H116.884V35.1097H120.084V31.7663Z" fill="black"/>
<path d="M53.0112 28C53.0112 42.7784 41.4002 54.6901 27.1606 54.6901C12.921 54.6901 1.30994 42.7784 1.30994 28C1.30994 13.2216 12.921 1.30994 27.1606 1.30994C41.4002 1.30994 53.0112 13.2216 53.0112 28Z" fill="black" stroke="black" stroke-width="2.61988"/>
<path d="M37.9892 15.3386L27.3369 30.054L16.6848 15.3386H14.0371V40.594H20.6255V30.6749L27.3216 40.1748H27.3677L34.0485 30.6749V40.594H40.6368V15.3386H37.9892Z" fill="#FED90D"/>
</svg>
